<mxfile host="app.diagrams.net" modified="2024-02-29T18:56:56.770Z" agent="Mozilla/5.0 (Windows NT 10.0; Win64; x64) AppleWebKit/537.36 (KHTML, like Gecko) Chrome/122.0.0.0 Safari/537.36" etag="K449GL7Cp7WqeHH2tYM8" version="23.1.7" type="google">
  <diagram name="Page-1" id="6Q2JO901lvsrSGW_jBNm">
    <mxGraphModel dx="1235" dy="614" grid="1" gridSize="10" guides="1" tooltips="1" connect="1" arrows="1" fold="1" page="1" pageScale="1" pageWidth="850" pageHeight="1100" math="0" shadow="0">
      <root>
        <mxCell id="0" />
        <mxCell id="1" parent="0" />
        <mxCell id="tALOdv66ER-8iDuXZ0Iz-1" value="TRAVEL&amp;nbsp; AND&amp;nbsp;&lt;br&gt;TOURISM" style="ellipse;whiteSpace=wrap;html=1;" parent="1" vertex="1">
          <mxGeometry x="330" y="120" width="120" height="80" as="geometry" />
        </mxCell>
        <mxCell id="tALOdv66ER-8iDuXZ0Iz-4" value="" style="endArrow=classic;html=1;rounded=0;entryX=0;entryY=0.5;entryDx=0;entryDy=0;" parent="1" target="tALOdv66ER-8iDuXZ0Iz-1" edge="1">
          <mxGeometry width="50" height="50" relative="1" as="geometry">
            <mxPoint x="220" y="160" as="sourcePoint" />
            <mxPoint x="270" y="110" as="targetPoint" />
          </mxGeometry>
        </mxCell>
        <mxCell id="tALOdv66ER-8iDuXZ0Iz-5" value="HOME" style="ellipse;whiteSpace=wrap;html=1;" parent="1" vertex="1">
          <mxGeometry x="520" y="40" width="120" height="80" as="geometry" />
        </mxCell>
        <mxCell id="tALOdv66ER-8iDuXZ0Iz-6" value="ABOUT US" style="ellipse;whiteSpace=wrap;html=1;" parent="1" vertex="1">
          <mxGeometry x="540" y="210" width="120" height="80" as="geometry" />
        </mxCell>
        <mxCell id="tALOdv66ER-8iDuXZ0Iz-7" value="" style="endArrow=classic;html=1;rounded=0;entryX=0.01;entryY=0.605;entryDx=0;entryDy=0;entryPerimeter=0;" parent="1" target="tALOdv66ER-8iDuXZ0Iz-5" edge="1">
          <mxGeometry width="50" height="50" relative="1" as="geometry">
            <mxPoint x="440" y="130" as="sourcePoint" />
            <mxPoint x="490" y="80" as="targetPoint" />
          </mxGeometry>
        </mxCell>
        <mxCell id="tALOdv66ER-8iDuXZ0Iz-8" value="" style="endArrow=classic;html=1;rounded=0;exitX=0.827;exitY=0.945;exitDx=0;exitDy=0;exitPerimeter=0;entryX=0;entryY=0.5;entryDx=0;entryDy=0;" parent="1" source="tALOdv66ER-8iDuXZ0Iz-1" target="tALOdv66ER-8iDuXZ0Iz-6" edge="1">
          <mxGeometry width="50" height="50" relative="1" as="geometry">
            <mxPoint x="440" y="210" as="sourcePoint" />
            <mxPoint x="490" y="160" as="targetPoint" />
          </mxGeometry>
        </mxCell>
        <mxCell id="tALOdv66ER-8iDuXZ0Iz-9" value="" style="endArrow=classic;html=1;rounded=0;" parent="1" target="tALOdv66ER-8iDuXZ0Iz-10" edge="1">
          <mxGeometry width="50" height="50" relative="1" as="geometry">
            <mxPoint x="450" y="160" as="sourcePoint" />
            <mxPoint x="690" y="160" as="targetPoint" />
          </mxGeometry>
        </mxCell>
        <mxCell id="tALOdv66ER-8iDuXZ0Iz-10" value="BOOKING" style="ellipse;whiteSpace=wrap;html=1;" parent="1" vertex="1">
          <mxGeometry x="650" y="120" width="120" height="80" as="geometry" />
        </mxCell>
        <mxCell id="tALOdv66ER-8iDuXZ0Iz-11" value="" style="endArrow=classic;html=1;rounded=0;exitX=0.38;exitY=1.005;exitDx=0;exitDy=0;exitPerimeter=0;" parent="1" source="tALOdv66ER-8iDuXZ0Iz-1" target="tALOdv66ER-8iDuXZ0Iz-12" edge="1">
          <mxGeometry width="50" height="50" relative="1" as="geometry">
            <mxPoint x="400" y="300" as="sourcePoint" />
            <mxPoint x="450" y="340" as="targetPoint" />
          </mxGeometry>
        </mxCell>
        <mxCell id="tALOdv66ER-8iDuXZ0Iz-12" value="EXPLORE ME" style="ellipse;whiteSpace=wrap;html=1;" parent="1" vertex="1">
          <mxGeometry x="390" y="300" width="120" height="80" as="geometry" />
        </mxCell>
        <mxCell id="tALOdv66ER-8iDuXZ0Iz-13" value="" style="endArrow=classic;html=1;rounded=0;" parent="1" edge="1">
          <mxGeometry width="50" height="50" relative="1" as="geometry">
            <mxPoint x="770" y="160" as="sourcePoint" />
            <mxPoint x="840" y="160" as="targetPoint" />
          </mxGeometry>
        </mxCell>
        <mxCell id="tALOdv66ER-8iDuXZ0Iz-16" value="" style="endArrow=classic;html=1;rounded=0;" parent="1" edge="1">
          <mxGeometry width="50" height="50" relative="1" as="geometry">
            <mxPoint x="410" y="200" as="sourcePoint" />
            <mxPoint x="630" y="380" as="targetPoint" />
          </mxGeometry>
        </mxCell>
        <mxCell id="tALOdv66ER-8iDuXZ0Iz-17" value="LATEST ON BLOGS" style="ellipse;whiteSpace=wrap;html=1;" parent="1" vertex="1">
          <mxGeometry x="630" y="340" width="120" height="80" as="geometry" />
        </mxCell>
        <mxCell id="tALOdv66ER-8iDuXZ0Iz-18" value="" style="endArrow=classic;html=1;rounded=0;exitX=1.02;exitY=0.705;exitDx=0;exitDy=0;exitPerimeter=0;" parent="1" source="tALOdv66ER-8iDuXZ0Iz-1" target="tALOdv66ER-8iDuXZ0Iz-19" edge="1">
          <mxGeometry width="50" height="50" relative="1" as="geometry">
            <mxPoint x="650" y="330" as="sourcePoint" />
            <mxPoint x="820" y="240" as="targetPoint" />
          </mxGeometry>
        </mxCell>
        <mxCell id="tALOdv66ER-8iDuXZ0Iz-19" value="CONTACT US" style="ellipse;whiteSpace=wrap;html=1;" parent="1" vertex="1">
          <mxGeometry x="820" y="210" width="120" height="80" as="geometry" />
        </mxCell>
        <mxCell id="tALOdv66ER-8iDuXZ0Iz-20" value="CUSTOMER" style="rounded=1;whiteSpace=wrap;html=1;" parent="1" vertex="1">
          <mxGeometry x="100" y="130" width="120" height="60" as="geometry" />
        </mxCell>
        <mxCell id="tALOdv66ER-8iDuXZ0Iz-21" value="" style="rounded=1;whiteSpace=wrap;html=1;" parent="1" vertex="1">
          <mxGeometry x="840" y="130" width="120" height="60" as="geometry" />
        </mxCell>
      </root>
    </mxGraphModel>
  </diagram>
</mxfile>
